<svg width="14" height="14" viewBox="0 0 14 14" fill="none" xmlns="http://www.w3.org/2000/svg">
<path fill-rule="evenodd" clip-rule="evenodd" d="M3.5 13.396V10.5H1C0.734784 10.5 0.48043 10.3946 0.292893 10.2071C0.105357 10.0196 0 9.76522 0 9.5V1.5C0 1.23478 0.105357 0.98043 0.292893 0.792893C0.48043 0.605357 0.734784 0.5 1 0.5H13C13.2652 0.5 13.5196 0.605357 13.7071 0.792893C13.8946 0.98043 14 1.23478 14 1.5V9.5C14 9.76522 13.8946 10.0196 13.7071 10.2071C13.5196 10.3946 13.2652 10.5 13 10.5H7L3.927 13.573C3.89204 13.6081 3.84745 13.6319 3.7989 13.6416C3.75034 13.6513 3.70001 13.6464 3.65427 13.6274C3.60853 13.6084 3.56945 13.5763 3.54199 13.5351C3.51453 13.4939 3.49991 13.4455 3.5 13.396ZM3 7C3 6.86739 3.05268 6.74021 3.14645 6.64645C3.24021 6.55268 3.36739 6.5 3.5 6.5H10.5C10.6326 6.5 10.7598 6.55268 10.8536 6.64645C10.9473 6.74021 11 6.86739 11 7C11 7.13261 10.9473 7.25979 10.8536 7.35355C10.7598 7.44732 10.6326 7.5 10.5 7.5H3.5C3.36739 7.5 3.24021 7.44732 3.14645 7.35355C3.05268 7.25979 3 7.13261 3 7ZM3.5 3.5C3.36739 3.5 3.24021 3.55268 3.14645 3.64645C3.05268 3.74021 3 3.86739 3 4C3 4.13261 3.05268 4.25979 3.14645 4.35355C3.24021 4.44732 3.36739 4.5 3.5 4.5H10.5C10.6326 4.5 10.7598 4.44732 10.8536 4.35355C10.9473 4.25979 11 4.13261 11 4C11 3.86739 10.9473 3.74021 10.8536 3.64645C10.7598 3.55268 10.6326 3.5 10.5 3.5H3.5Z" fill="white"/>
</svg>
