<svg width="22" height="21" viewBox="0 0 22 21" fill="none" xmlns="http://www.w3.org/2000/svg">
<path d="M11.5515 0.581674C11.607 0.618383 11.6591 0.6608 11.7068 0.708543L16.7295 5.7312C17.12 6.12172 17.12 6.75489 16.7295 7.14541C16.3389 7.53594 15.7058 7.53594 15.3153 7.14541L11.9995 3.82967V13.47C11.9995 14.0223 11.5518 14.47 10.9995 14.47C10.4472 14.47 9.99951 14.0223 9.99951 13.47V3.83006L6.68416 7.14541C6.29363 7.53594 5.66047 7.53594 5.26994 7.14541C4.87942 6.75489 4.87942 6.12172 5.26994 5.7312L10.2808 0.72036C10.4626 0.532464 10.7174 0.415649 10.9995 0.415649C10.9995 0.415649 10.9995 0.415649 10.9995 0.415649" fill="white"/>
<path d="M11.5515 0.581674C11.3947 0.477927 11.2107 0.419778 11.0203 0.415861C11.0134 0.41572 11.0064 0.415649 10.9995 0.415649" fill="white"/>
<path d="M1.95898 12.47C2.51127 12.47 2.95898 12.9177 2.95898 13.47V17.4881C2.95898 17.7557 3.0653 18.0124 3.25453 18.2016C3.44377 18.3908 3.70043 18.4972 3.96805 18.4972H18.0315C18.2991 18.4972 18.5558 18.3908 18.745 18.2016C18.9342 18.0124 19.0405 17.7557 19.0405 17.4881V13.47C19.0405 12.9177 19.4883 12.47 20.0405 12.47C20.5928 12.47 21.0405 12.9177 21.0405 13.47V17.4881C21.0405 18.2861 20.7235 19.0515 20.1592 19.6158C19.5949 20.1801 18.8295 20.4972 18.0315 20.4972H3.96805C3.16999 20.4972 2.40463 20.1801 1.84032 19.6158C1.27601 19.0515 0.958984 18.2861 0.958984 17.4881V13.47C0.958984 12.9177 1.4067 12.47 1.95898 12.47Z" fill="white"/>
</svg>
