<svg width="163" height="40" viewBox="0 0 163 40" fill="none" xmlns="http://www.w3.org/2000/svg">
<g clip-path="url(#clip0_3676_1768)">
<path d="M73.4974 16.4141C79.366 16.4141 83.609 20.7899 83.609 26.691C83.609 27.0904 83.555 27.8167 83.5009 28.2162C83.4465 28.779 82.9953 29.1785 82.4896 29.1785H66.4194C66.636 32.937 69.9406 36.4777 73.895 36.4777C76.2424 36.4777 78.1381 35.588 79.42 34.789C80.1963 34.3351 80.5394 34.0628 80.9911 34.6801C81.3342 35.134 81.6048 35.5153 81.9479 35.9693C82.3451 36.4777 82.5621 36.8045 81.7313 37.4218C80.3953 38.4931 77.3798 40.0001 73.5339 40.0001C66.7805 40.0001 62.5915 34.662 62.5915 28.2162C62.5555 21.8612 66.7445 16.4141 73.4974 16.4141ZM79.7451 26.0192C79.5826 22.769 76.8921 19.8458 73.4974 19.8458C69.7601 19.8458 66.853 22.533 66.4554 26.0192H79.7451Z" fill="white"/>
<path d="M89.5679 1.19822C89.5679 0.635353 90.0735 0.126953 90.6332 0.126953H92.3668C92.9265 0.126953 93.4322 0.635353 93.4322 1.19822V17.8664C93.4322 17.8664 95.7251 16.4139 99.4088 16.4139C106.108 16.4139 110.134 21.5705 110.134 28.1433C110.134 34.6072 105.674 39.9818 99.9685 39.9818C95.7795 39.9818 93.1071 37.004 93.1071 37.004L92.764 38.511C92.6555 39.0194 92.3124 39.4007 91.8071 39.4007H90.6332C90.0735 39.4007 89.5679 38.8923 89.5679 38.3295V1.19822ZM99.5529 36.4593C103.634 36.4593 106.198 32.5918 106.198 28.216C106.198 23.7312 103.742 20.1905 98.8852 20.1905C95.8156 20.1905 93.4682 21.5341 93.4682 21.5341V32.7552C93.4682 32.7552 95.5445 36.4593 99.5529 36.4593Z" fill="white"/>
<path d="M115.46 9.40504C115.46 7.898 116.634 6.71777 118.079 6.71777C119.577 6.71777 120.751 7.898 120.751 9.40504C120.751 10.8576 119.577 12.0378 118.079 12.0378C116.634 12.0378 115.46 10.8576 115.46 9.40504ZM116.237 18.0478C116.237 17.4849 116.742 16.9766 117.302 16.9766H119.036C119.595 16.9766 120.101 17.4849 120.101 18.0478V38.3656C120.101 38.9284 119.595 39.4369 119.036 39.4369H117.302C116.742 39.4369 116.237 38.9284 116.237 38.3656V18.0478Z" fill="white"/>
<path d="M127.83 18.0482C127.83 17.4854 128.335 16.9769 128.895 16.9769H129.96C130.465 16.9769 130.737 17.1948 130.845 17.6488L131.35 19.3918C131.35 19.3918 133.969 16.4141 138.609 16.4141C141.896 16.4141 144.297 17.7032 145.759 20.0637C146.03 19.8458 149.605 16.4141 154.083 16.4141C160.566 16.4141 162.732 20.681 162.732 26.5094V38.3478C162.732 38.9107 162.227 39.4191 161.667 39.4191H159.879C159.32 39.4191 158.814 38.9107 158.814 38.3478V26.5094C158.814 22.297 157.027 20.1726 153.795 20.1726C150.165 20.1726 147.764 22.5875 146.987 23.3137C147.15 24.2761 147.258 25.3292 147.258 26.5094V38.3478C147.258 38.9107 146.753 39.4191 146.193 39.4191H144.405C143.846 39.4191 143.34 38.9107 143.34 38.3478V26.5094C143.34 22.2425 141.444 20.1726 138.031 20.1726C134.077 20.1726 131.675 23.3682 131.675 23.3682V38.3478C131.675 38.9107 131.17 39.4191 130.61 39.4191H128.877C128.317 39.4191 127.812 38.9107 127.812 38.3478V18.0482H127.83Z" fill="white"/>
<path d="M59.5029 0C58.8532 0 58.3295 0.453928 58.1309 1.07127L58.0584 1.39809L57.3546 4.90242C57.1376 6.06448 56.867 7.29915 56.5959 8.51569L56.4698 9.133C55.8376 12.02 55.1694 14.9433 54.4471 17.8303C53.6889 20.917 52.8405 23.8403 51.9737 26.4912C51.4681 28.0345 50.9444 29.3963 50.4207 30.5402C50.1321 31.1757 49.843 31.7749 49.5179 32.3014C49.1928 32.828 48.1094 35.1339 46.4663 32.5375C46.1777 32.0836 45.8526 31.5389 45.4914 30.8489C44.1913 28.2706 43.0357 25.1294 42.0426 22.4058L41.3023 20.3722C40.5439 18.266 39.7675 16.1053 38.9008 13.9447C38.8105 13.7268 38.7202 13.5089 38.6299 13.291C38.0702 11.9292 37.384 10.3314 36.5354 8.69726C36.0659 7.80753 35.6145 7.08126 35.1631 6.40946C34.6756 5.71946 34.0797 4.93874 33.1588 4.2306C32.6533 3.86746 32.1657 3.5951 31.6602 3.44985C31.0823 3.26827 30.4323 3.25012 29.8545 3.37722C29.3128 3.50432 28.7711 3.74036 28.2475 4.12166C27.76 4.46664 27.3988 4.84794 27.0558 5.22924C26.3516 6.06448 25.864 6.88152 25.4849 7.58964C25.4849 7.58964 29.8906 6.97233 32.5269 11.4935C32.563 11.5479 32.581 11.5842 32.6171 11.6387C32.6894 11.7839 32.7797 11.9292 32.8519 12.0745C33.3755 13.1639 33.9894 14.4167 34.6575 16.0872C35.452 18.0844 36.2104 20.1362 37.0048 22.3151C37.3299 23.2048 37.6549 24.0944 37.9799 24.9842C38.4855 26.3459 39.0994 27.9619 39.7494 29.5597C40.255 30.8126 40.9592 32.483 41.844 34.1353C42.187 34.7526 42.6384 35.5879 43.2162 36.405C43.6857 37.0768 44.2996 37.8757 45.1663 38.5838C45.636 38.9469 46.1052 39.2193 46.5928 39.4009C47.1525 39.6187 47.7847 39.6914 48.3444 39.6006C49.0487 39.5098 49.6264 39.2193 49.9875 38.9833C50.4387 38.6927 50.8723 38.3296 51.2155 37.9483C51.9737 37.1313 52.461 36.296 52.8766 35.5697C53.2737 34.8435 53.6528 34.0627 54.014 33.1912C54.5917 31.7749 55.1334 30.286 55.6751 28.4703C56.6504 25.2565 57.3546 22.1153 57.9684 19.1739C58.5281 16.5411 59.0518 13.6723 59.6475 10.1498L59.774 9.42354C59.9726 8.18883 60.1712 6.99049 60.3517 5.73762L60.8754 1.97912L60.9475 1.47072C60.9475 1.45256 60.9475 1.45257 60.9475 1.43441C60.9294 0.671812 60.2977 0 59.5029 0Z" fill="white"/>
<path d="M25.5214 7.55347C25.1422 8.26159 24.7991 9.07867 24.4199 9.96836C24.0949 10.7491 23.806 11.548 23.5352 12.3106L22.7948 14.6347C22.3434 16.1599 21.892 17.5036 21.4226 18.7201C20.917 20.0637 20.3572 21.2802 19.7794 22.3515C19.328 23.1685 18.6419 24.2943 17.8113 25.0569C17.071 25.7106 16.4209 25.9829 15.6626 25.9829C14.9222 25.9647 14.0375 25.5653 13.1708 24.839C12.4846 24.2761 11.7624 23.4954 10.9137 22.3878C10.2637 21.5163 9.59561 20.5176 8.92752 19.41C7.82608 17.5036 6.72464 15.3792 5.64126 13.055C3.61895 8.69737 2.30083 4.93885 1.12716 1.76136C1.07299 1.57979 0.946599 1.45269 0.784092 1.38006C0.711866 1.36191 0.63964 1.34375 0.567415 1.34375C0.404906 1.34375 0.260455 1.38006 0.152116 1.48901C0.0618342 1.59795 -0.0284479 1.7432 0.00766495 1.92478C0.0437778 2.05188 0.0618342 2.16082 0.097947 2.28792C0.928543 5.59248 2.10221 9.85944 3.78145 14.5258C4.48565 16.4504 5.4607 19.0106 6.7427 21.5889C7.39273 22.8962 8.04276 24.0583 8.7289 25.1295C9.57755 26.4732 10.4262 27.5262 11.3651 28.4341C11.9429 28.997 12.5207 29.4328 13.1166 29.7959C13.8569 30.2317 14.5611 30.504 15.2473 30.613C16.0237 30.7401 16.8543 30.6856 17.6127 30.4314C18.3349 30.1954 19.0391 29.814 19.7614 29.2512C21.1878 28.1073 22.1629 26.6729 22.8671 25.5471C23.6074 24.3488 24.2755 23.0415 25.0158 21.2802C25.5755 19.9366 26.1353 18.4659 26.695 16.7773L27.4173 14.7074C27.6701 14.0174 27.9409 13.3819 28.1937 12.7464C29.4757 9.38733 31.1911 9.24208 32.5634 11.5299C29.873 6.51849 25.5214 7.55347 25.5214 7.55347Z" fill="url(#paint0_linear_3676_1768)"/>
</g>
<defs>
<linearGradient id="paint0_linear_3676_1768" x1="0.00766495" y1="16.0114" x2="32.5715" y2="16.0114" gradientUnits="userSpaceOnUse">
<stop stop-color="#28E2FF"/>
<stop offset="1" stop-color="#2E3192"/>
</linearGradient>
<clipPath id="clip0_3676_1768">
<rect width="162.778" height="40" fill="white"/>
</clipPath>
</defs>
</svg>
