<svg width="20" height="20" viewBox="0 0 20 20" fill="none" xmlns="http://www.w3.org/2000/svg">
<path d="M18.0502 18.75C17.939 18.7515 17.8294 18.7234 17.7327 18.6684C17.6361 18.6135 17.5558 18.5338 17.5002 18.4375C16.6678 17.0194 15.4813 15.8419 14.0571 15.0202C12.6328 14.1985 11.0195 13.7608 9.37521 13.75V17.5C9.37459 17.6234 9.33746 17.7438 9.2685 17.8461C9.19955 17.9485 9.10184 18.0281 8.98771 18.075C8.87389 18.1228 8.74844 18.1359 8.6272 18.1125C8.50595 18.0892 8.39435 18.0304 8.30646 17.9437L0.806456 10.4437C0.747876 10.3856 0.701379 10.3165 0.669649 10.2403C0.637918 10.1642 0.621582 10.0825 0.621582 9.99996C0.621582 9.91746 0.637918 9.83577 0.669649 9.7596C0.701379 9.68344 0.747876 9.61432 0.806456 9.55621L8.30646 2.05622C8.39435 1.96949 8.50595 1.91074 8.6272 1.88739C8.74844 1.86403 8.87389 1.8771 8.98771 1.92497C9.10184 1.97185 9.19955 2.05148 9.2685 2.1538C9.33746 2.25613 9.37459 2.37657 9.37521 2.49997V6.31871C11.961 6.65083 14.3377 7.91181 16.0626 9.86663C17.7874 11.8214 18.7426 14.3367 18.7502 16.9437C18.7487 17.3617 18.7216 17.7791 18.669 18.1937C18.6533 18.3237 18.5973 18.4456 18.5087 18.542C18.4201 18.6385 18.3034 18.7046 18.1752 18.7312L18.0502 18.75ZM9.06271 12.5C10.6567 12.4771 12.2367 12.8005 13.6934 13.448C15.1502 14.0954 16.449 15.0514 17.5002 16.25C17.3122 13.9827 16.3225 11.8566 14.7086 10.2531C13.0948 8.64954 10.9624 7.67347 8.69396 7.49996C8.53813 7.48588 8.39325 7.41387 8.28795 7.29815C8.18264 7.18243 8.12457 7.03142 8.12521 6.87496V4.00621L2.13146 9.99996L8.12521 15.9937V13.125C8.12521 12.9592 8.19105 12.8002 8.30826 12.683C8.42547 12.5658 8.58444 12.5 8.75021 12.5H9.08771H9.06271Z" fill="white"/>
</svg>
