<svg width="84" height="20" viewBox="0 0 84 20" fill="none" xmlns="http://www.w3.org/2000/svg">
<g clip-path="url(#clip0_3435_105)">
<path d="M37.5022 8.1485C40.4969 8.1485 42.6622 10.3208 42.6622 13.2502C42.6622 13.4485 42.6346 13.8091 42.6069 14.0074C42.5793 14.2868 42.3489 14.4851 42.0909 14.4851H33.8902C34.0008 16.351 35.687 18.1086 37.7049 18.1086C38.9028 18.1086 39.8703 17.667 40.5245 17.2703C40.9207 17.045 41.0958 16.9098 41.3261 17.2163C41.5012 17.4416 41.6394 17.6309 41.8145 17.8562C42.0172 18.1086 42.1278 18.2709 41.7039 18.5773C41.0221 19.1091 39.4833 19.8573 37.5207 19.8573C34.0745 19.8573 31.9368 17.2073 31.9368 14.0074C31.9184 10.8526 34.0561 8.1485 37.5022 8.1485ZM40.6904 12.9167C40.6074 11.3033 39.2345 9.85209 37.5022 9.85209C35.5949 9.85209 34.1114 11.1861 33.9087 12.9167H40.6904Z" fill="white"/>
<path d="M45.7027 0.594918C45.7027 0.315494 45.9607 0.0631104 46.2463 0.0631104H47.1309C47.4165 0.0631104 47.6745 0.315494 47.6745 0.594918V8.86948C47.6745 8.86948 48.8447 8.14839 50.7245 8.14839C54.1429 8.14839 56.1977 10.7083 56.1977 13.9712C56.1977 17.1801 53.9218 19.8482 51.0101 19.8482C48.8724 19.8482 47.5087 18.3699 47.5087 18.3699L47.3336 19.118C47.2783 19.3704 47.1033 19.5597 46.8453 19.5597H46.2463C45.9607 19.5597 45.7027 19.3073 45.7027 19.0279V0.594918ZM50.7982 18.0995C52.8806 18.0995 54.189 16.1796 54.189 14.0073C54.189 11.7809 52.9359 10.0232 50.4572 10.0232C48.8908 10.0232 47.693 10.6902 47.693 10.6902V16.2607C47.693 16.2607 48.7526 18.0995 50.7982 18.0995Z" fill="white"/>
<path d="M58.9163 4.66906C58.9163 3.92093 59.5152 3.33504 60.2524 3.33504C61.0171 3.33504 61.6161 3.92093 61.6161 4.66906C61.6161 5.39016 61.0171 5.97605 60.2524 5.97605C59.5152 5.97605 58.9163 5.39016 58.9163 4.66906ZM59.3125 8.95958C59.3125 8.68015 59.5705 8.42777 59.8561 8.42777H60.7407C61.0263 8.42777 61.2843 8.68015 61.2843 8.95958V19.0459C61.2843 19.3253 61.0263 19.5777 60.7407 19.5777H59.8561C59.5705 19.5777 59.3125 19.3253 59.3125 19.0459V8.95958Z" fill="white"/>
<path d="M65.228 8.95973C65.228 8.68031 65.486 8.42792 65.7716 8.42792H66.3153C66.5733 8.42792 66.7115 8.53609 66.7668 8.76143L67.0248 9.62674C67.0248 9.62674 68.3608 8.1485 70.7289 8.1485C72.4059 8.1485 73.6314 8.78847 74.3777 9.96025C74.516 9.85208 76.3404 8.1485 78.6255 8.1485C81.9334 8.1485 83.0391 10.2667 83.0391 13.1601V19.037C83.0391 19.3165 82.7811 19.5688 82.4955 19.5688H81.5833C81.2977 19.5688 81.0396 19.3165 81.0396 19.037V13.1601C81.0396 11.0689 80.1274 10.0143 78.4781 10.0143C76.626 10.0143 75.4005 11.2131 75.0043 11.5737C75.0872 12.0514 75.1425 12.5742 75.1425 13.1601V19.037C75.1425 19.3165 74.8845 19.5688 74.5989 19.5688H73.6867C73.401 19.5688 73.143 19.3165 73.143 19.037V13.1601C73.143 11.0419 72.1755 10.0143 70.434 10.0143C68.4161 10.0143 67.1906 11.6007 67.1906 11.6007V19.037C67.1906 19.3165 66.9326 19.5688 66.647 19.5688H65.7624C65.4768 19.5688 65.2188 19.3165 65.2188 19.037V8.95973H65.228Z" fill="white"/>
<path d="M30.3607 0C30.0289 0 29.7617 0.225342 29.6604 0.531807L29.6235 0.694054L29.2642 2.43369C29.1536 3.01057 29.0154 3.6235 28.8772 4.22742L28.8127 4.53388C28.4902 5.96706 28.1492 7.41826 27.7807 8.85144C27.3937 10.3838 26.9606 11.835 26.5183 13.151C26.2603 13.9171 25.9931 14.5932 25.7259 15.161C25.5785 15.4765 25.431 15.7739 25.2652 16.0353C25.0993 16.2967 24.5465 17.4415 23.708 16.1525C23.5605 15.9272 23.3947 15.6568 23.2104 15.3142C22.547 14.0343 21.9572 12.4749 21.4505 11.1229L21.0727 10.1134C20.6857 9.06777 20.2895 7.99514 19.8472 6.92251C19.8011 6.81435 19.755 6.70618 19.709 6.59802C19.4233 5.92199 19.0732 5.12879 18.6401 4.31755C18.4005 3.87588 18.1702 3.51534 17.9398 3.18183C17.691 2.83931 17.387 2.45172 16.917 2.10019C16.659 1.91991 16.4103 1.78471 16.1523 1.7126C15.8574 1.62246 15.5257 1.61345 15.2308 1.67655C14.9544 1.73964 14.678 1.85682 14.4108 2.04611C14.162 2.21737 13.9777 2.40665 13.8026 2.59594C13.4433 3.01057 13.1945 3.41619 13.001 3.76772C13.001 3.76772 15.2493 3.46125 16.5945 5.70566C16.613 5.7327 16.6222 5.75073 16.6406 5.77777C16.6775 5.84988 16.7235 5.92199 16.7604 5.9941C17.0276 6.53492 17.3409 7.15687 17.6818 7.98612C18.0873 8.97763 18.4743 9.99618 18.8797 11.0778C19.0455 11.5195 19.2114 11.9612 19.3773 12.4028C19.6353 13.0789 19.9485 13.8811 20.2803 14.6743C20.5382 15.2962 20.8976 16.1255 21.3491 16.9457C21.5242 17.2522 21.7545 17.6668 22.0494 18.0724C22.289 18.4059 22.6022 18.8025 23.0445 19.1541C23.2841 19.3344 23.5237 19.4696 23.7725 19.5597C24.0581 19.6679 24.3806 19.7039 24.6662 19.6588C25.0256 19.6138 25.3205 19.4696 25.5047 19.3524C25.7351 19.2082 25.9562 19.0279 26.1313 18.8386C26.5183 18.433 26.7671 18.0184 26.979 17.6578C27.1817 17.2973 27.3752 16.9097 27.5595 16.477C27.8544 15.7739 28.1308 15.0348 28.4072 14.1335C28.9048 12.538 29.2642 10.9787 29.5774 9.51845C29.8631 8.21147 30.1303 6.7873 30.4344 5.03865L30.4989 4.6781C30.6002 4.06517 30.7016 3.47027 30.7937 2.84832L31.0609 0.982492L31.0978 0.730108C31.0978 0.721095 31.0978 0.721095 31.0978 0.712081C31.0886 0.333506 30.7661 0 30.3607 0Z" fill="white"/>
<path d="M13.0197 3.74967C12.8262 4.10121 12.6512 4.50682 12.4577 4.94849C12.2918 5.33608 12.1444 5.73268 12.0062 6.11126L11.6284 7.26501C11.398 8.02216 11.1677 8.68917 10.9281 9.29309C10.6701 9.9601 10.3845 10.564 10.0896 11.0958C9.85925 11.5014 9.50911 12.0603 9.08526 12.4389C8.70747 12.7634 8.37576 12.8986 7.98876 12.8986C7.61097 12.8895 7.15947 12.6912 6.71719 12.3307C6.36705 12.0513 5.99848 11.6637 5.56541 11.1139C5.23369 10.6812 4.89276 10.1854 4.55184 9.63561C3.98977 8.68917 3.4277 7.63457 2.87484 6.48082C1.84284 4.31753 1.1702 2.4517 0.571272 0.874307C0.543629 0.78417 0.479129 0.721074 0.396201 0.68502C0.359344 0.676006 0.322487 0.666992 0.28563 0.666992C0.202701 0.666992 0.128987 0.68502 0.0737015 0.739102C0.0276302 0.793184 -0.0184412 0.865293 -1.26446e-05 0.95543C0.0184159 1.01853 0.0276302 1.07261 0.0460587 1.1357C0.469915 2.77619 1.06884 4.89441 1.92577 7.21093C2.28513 8.16638 2.7827 9.43731 3.43691 10.7172C3.76862 11.3662 4.10034 11.9431 4.45048 12.4749C4.88355 13.1419 5.31662 13.6647 5.79576 14.1154C6.09062 14.3948 6.38548 14.6112 6.68955 14.7914C7.06733 15.0078 7.42669 15.143 7.77683 15.1971C8.17304 15.2601 8.5969 15.2331 8.9839 15.1069C9.35247 14.9897 9.71183 14.8004 10.0804 14.521C10.8083 13.9532 11.3059 13.2411 11.6653 12.6822C12.043 12.0873 12.384 11.4383 12.7617 10.564C13.0474 9.897 13.333 9.1669 13.6187 8.32862L13.9872 7.30106C14.1162 6.95854 14.2545 6.64306 14.3835 6.32758C15.0377 4.66005 15.913 4.58794 16.6133 5.72367C15.2404 3.23589 13.0197 3.74967 13.0197 3.74967Z" fill="url(#paint0_linear_3435_105)"/>
</g>
<defs>
<linearGradient id="paint0_linear_3435_105" x1="-1.26448e-05" y1="7.9484" x2="16.6175" y2="7.9484" gradientUnits="userSpaceOnUse">
<stop stop-color="#28E2FF"/>
<stop offset="1" stop-color="#2E3192"/>
</linearGradient>
<clipPath id="clip0_3435_105">
<rect width="83.039" height="19.8571" fill="white"/>
</clipPath>
</defs>
</svg>
