<svg width="22" height="22" viewBox="0 0 22 22" fill="none" xmlns="http://www.w3.org/2000/svg">
<path d="M15.1018 4.9573L17.0433 6.89788L15.1018 4.9573ZM16.3503 3.24771L11.1006 8.49746C10.8293 8.76834 10.6443 9.11345 10.5689 9.4893L10.084 11.9166L12.5113 11.4308C12.8872 11.3556 13.2318 11.1714 13.5032 10.9L18.7529 5.6503C18.9107 5.49254 19.0358 5.30526 19.1212 5.09914C19.2066 4.89302 19.2505 4.67211 19.2505 4.449C19.2505 4.2259 19.2066 4.00499 19.1212 3.79887C19.0358 3.59275 18.9107 3.40547 18.7529 3.24771C18.5951 3.08996 18.4079 2.96482 18.2017 2.87944C17.9956 2.79406 17.7747 2.75012 17.5516 2.75012C17.3285 2.75012 17.1076 2.79406 16.9015 2.87944C16.6954 2.96482 16.5081 3.08996 16.3503 3.24771V3.24771Z" stroke="white" stroke-width="1.2" stroke-linecap="round" stroke-linejoin="round"/>
<path d="M17.417 13.7499V16.4999C17.417 16.9861 17.2238 17.4525 16.88 17.7963C16.5362 18.1401 16.0699 18.3333 15.5837 18.3333H5.50033C5.0141 18.3333 4.54778 18.1401 4.20396 17.7963C3.86015 17.4525 3.66699 16.9861 3.66699 16.4999V6.41659C3.66699 5.93036 3.86015 5.46404 4.20396 5.12022C4.54778 4.77641 5.0141 4.58325 5.50033 4.58325H8.25033" stroke="white" stroke-width="1.2" stroke-linecap="round" stroke-linejoin="round"/>
</svg>
