<svg width="40" height="40" viewBox="0 0 40 40" fill="none" xmlns="http://www.w3.org/2000/svg">
<path d="M39.5 20C39.5 30.7696 30.7696 39.5 20 39.5C9.23045 39.5 0.5 30.7696 0.5 20C0.5 9.23045 9.23045 0.5 20 0.5C30.7696 0.5 39.5 9.23045 39.5 20Z" stroke="#C95738"/>
<path d="M18 11.5622C18 10.6994 18.6994 10 19.5622 10C20.4249 10 21.1243 10.6994 21.1243 11.5622V22.2852C21.1243 23.148 20.4249 23.8474 19.5622 23.8474C18.6994 23.8474 18 23.148 18 22.2852V11.5622Z" fill="#C95738"/>
<path d="M18 28.6876C18 27.8248 18.6994 27.1254 19.5622 27.1254C20.4249 27.1254 21.1243 27.8248 21.1243 28.6876C21.1243 29.5503 20.4249 30.2498 19.5622 30.2498C18.6994 30.2498 18 29.5503 18 28.6876Z" fill="#C95738"/>
</svg>
