<svg width="40" height="40" xmlns="http://www.w3.org/2000/svg" fill="none">
 <g>
  <title>Layer 1</title>
  <path transform="rotate(180 20 20)" stroke="#50a9cf" d="m39.5,20c0,10.7696 -8.7304,19.5 -19.5,19.5c-10.76955,0 -19.5,-8.7304 -19.5,-19.5c0,-10.76955 8.73045,-19.5 19.5,-19.5c10.7696,0 19.5,8.73045 19.5,19.5z" id="svg_1"/>
  <path d="m18,18.5622c0,-0.8628 0.6994,-1.5622 1.5622,-1.5622c0.8627,0 1.5621,0.6994 1.5621,1.5622l0,10.723c0,0.8628 -0.6994,1.5622 -1.5621,1.5622c-0.8628,0 -1.5622,-0.6994 -1.5622,-1.5622l0,-10.723z" fill="#50a9cf" id="svg_2"/>
  <path d="m18,11.5622c0,-0.8628 0.6994,-1.5622 1.5622,-1.5622c0.8627,0 1.5621,0.6994 1.5621,1.5622c0,0.8627 -0.6994,1.5622 -1.5621,1.5622c-0.8628,0 -1.5622,-0.6995 -1.5622,-1.5622z" fill="#50a9cf" id="svg_3"/>
 </g>

</svg>